<svg xmlns="http://www.w3.org/2000/svg" width="98" height="100" viewBox="0 0 98 100">
  <!-- Ro control: radius 3. Generated from core/tokens by scripts/generate-theme.sh. -->
  <defs>
  <style id="current-color-scheme" type="text/css">
    .ColorScheme-Text { color:#edeef0; }
    .ColorScheme-ViewBackground { color:#2b2d2f; }
    .ColorScheme-ButtonBackground { color:#37393c; }
    .ColorScheme-ButtonText { color:#edeef0; }
    .ColorScheme-ViewFocus { color:#7da2e8; }
    .ColorScheme-ButtonFocus { color:#7da2e8; }
    .ColorScheme-Highlight { color:#7da2e8; }
  </style>
  </defs>
  <g id="groove-topleft">
    <path d="M 3,3 L 0,3 A 3,3 0 0 1 3,0 Z" class="ColorScheme-Text" fill="currentColor" fill-opacity="0.2"/>
  </g>
  <g id="groove-topright">
    <path d="M 35,3 L 38,3 A 3,3 0 0 0 35,0 Z" class="ColorScheme-Text" fill="currentColor" fill-opacity="0.2"/>
  </g>
  <g id="groove-bottomleft">
    <path d="M 3,35 L 0,35 A 3,3 0 0 0 3,38 Z" class="ColorScheme-Text" fill="currentColor" fill-opacity="0.2"/>
  </g>
  <g id="groove-bottomright">
    <path d="M 35,35 L 38,35 A 3,3 0 0 1 35,38 Z" class="ColorScheme-Text" fill="currentColor" fill-opacity="0.2"/>
  </g>
  <g id="groove-top">
    <rect x="3" y="0" width="32" height="3" class="ColorScheme-Text" fill="currentColor" fill-opacity="0.2"/>
  </g>
  <g id="groove-bottom">
    <rect x="3" y="35" width="32" height="3" class="ColorScheme-Text" fill="currentColor" fill-opacity="0.2"/>
  </g>
  <g id="groove-left">
    <rect x="0" y="3" width="3" height="32" class="ColorScheme-Text" fill="currentColor" fill-opacity="0.2"/>
  </g>
  <g id="groove-right">
    <rect x="35" y="3" width="3" height="32" class="ColorScheme-Text" fill="currentColor" fill-opacity="0.2"/>
  </g>
  <g id="groove-center">
    <rect x="3" y="3" width="32" height="32" class="ColorScheme-Text" fill="currentColor" fill-opacity="0.2"/>
  </g>
  <rect id="groove-hint-top-margin" x="46" y="0" width="1" height="0" fill-opacity="0"/>
  <rect id="groove-hint-bottom-margin" x="50" y="0" width="1" height="0" fill-opacity="0"/>
  <rect id="groove-hint-left-margin" x="54" y="0" width="0" height="1" fill-opacity="0"/>
  <rect id="groove-hint-right-margin" x="54" y="4" width="0" height="1" fill-opacity="0"/>
  <g id="groove-highlight-topleft">
    <path d="M 3,49 L 0,49 A 3,3 0 0 1 3,46 Z" class="ColorScheme-Highlight" fill="currentColor"/>
  </g>
  <g id="groove-highlight-topright">
    <path d="M 35,49 L 38,49 A 3,3 0 0 0 35,46 Z" class="ColorScheme-Highlight" fill="currentColor"/>
  </g>
  <g id="groove-highlight-bottomleft">
    <path d="M 3,81 L 0,81 A 3,3 0 0 0 3,84 Z" class="ColorScheme-Highlight" fill="currentColor"/>
  </g>
  <g id="groove-highlight-bottomright">
    <path d="M 35,81 L 38,81 A 3,3 0 0 1 35,84 Z" class="ColorScheme-Highlight" fill="currentColor"/>
  </g>
  <g id="groove-highlight-top">
    <rect x="3" y="46" width="32" height="3" class="ColorScheme-Highlight" fill="currentColor"/>
  </g>
  <g id="groove-highlight-bottom">
    <rect x="3" y="81" width="32" height="3" class="ColorScheme-Highlight" fill="currentColor"/>
  </g>
  <g id="groove-highlight-left">
    <rect x="0" y="49" width="3" height="32" class="ColorScheme-Highlight" fill="currentColor"/>
  </g>
  <g id="groove-highlight-right">
    <rect x="35" y="49" width="3" height="32" class="ColorScheme-Highlight" fill="currentColor"/>
  </g>
  <g id="groove-highlight-center">
    <rect x="3" y="49" width="32" height="32" class="ColorScheme-Highlight" fill="currentColor"/>
  </g>
  <rect id="groove-highlight-hint-top-margin" x="46" y="46" width="1" height="0" fill-opacity="0"/>
  <rect id="groove-highlight-hint-bottom-margin" x="50" y="46" width="1" height="0" fill-opacity="0"/>
  <rect id="groove-highlight-hint-left-margin" x="54" y="46" width="0" height="1" fill-opacity="0"/>
  <rect id="groove-highlight-hint-right-margin" x="54" y="50" width="0" height="1" fill-opacity="0"/>
  <rect id="hint-handle-size" x="78" y="0" width="16" height="16" fill-opacity="0"/>
  <g id="horizontal-slider-handle">
    <rect x="102" y="0" width="16" height="16" fill-opacity="0"/>
    <circle cx="110" cy="8" r="8" class="ColorScheme-Highlight" fill="currentColor"/>
  </g>
  <g id="horizontal-slider-hover">
    <rect x="126" y="0" width="16" height="16" fill-opacity="0"/>
    <circle cx="134" cy="8" r="8" class="ColorScheme-Highlight" fill="currentColor"/>
    <circle cx="134" cy="8" r="8" class="ColorScheme-Text" fill="currentColor" fill-opacity="0.12"/>
  </g>
  <g id="horizontal-slider-focus">
    <rect x="150" y="0" width="22" height="22" fill-opacity="0"/>
    <path d="M 150,11 A 11,11 0 1 0 172,11 A 11,11 0 1 0 150,11 Z M 152,11 A 9,9 0 1 0 170,11 A 9,9 0 1 0 152,11 Z" fill-rule="evenodd" class="ColorScheme-Highlight" fill="currentColor"/>
  </g>
  <g id="horizontal-slider-shadow">
    <rect x="180" y="0" width="16" height="16" fill-opacity="0"/>
  </g>
  <g id="vertical-slider-handle">
    <rect x="204" y="0" width="16" height="16" fill-opacity="0"/>
    <circle cx="212" cy="8" r="8" class="ColorScheme-Highlight" fill="currentColor"/>
  </g>
  <g id="vertical-slider-hover">
    <rect x="228" y="0" width="16" height="16" fill-opacity="0"/>
    <circle cx="236" cy="8" r="8" class="ColorScheme-Highlight" fill="currentColor"/>
    <circle cx="236" cy="8" r="8" class="ColorScheme-Text" fill="currentColor" fill-opacity="0.12"/>
  </g>
  <g id="vertical-slider-focus">
    <rect x="252" y="0" width="22" height="22" fill-opacity="0"/>
    <path d="M 252,11 A 11,11 0 1 0 274,11 A 11,11 0 1 0 252,11 Z M 254,11 A 9,9 0 1 0 272,11 A 9,9 0 1 0 254,11 Z" fill-rule="evenodd" class="ColorScheme-Highlight" fill="currentColor"/>
  </g>
  <g id="vertical-slider-shadow">
    <rect x="282" y="0" width="16" height="16" fill-opacity="0"/>
  </g>
</svg>
