<svg width="24" height="24" viewBox="0 0 24 24" fill="none" xmlns="http://www.w3.org/2000/svg">
<rect width="24" height="24" fill="#F5F5F5"/>
<g clip-path="url(#clip0_0_1)">
<rect width="24" height="24" fill="white"/>
<path d="M12 20H12.01H12Z" fill="#D9D9D9"/>
<path d="M2 8.82C4.75011 6.36023 8.31034 5.00034 12 5.00034C15.6897 5.00034 19.2499 6.36023 22 8.82" fill="#D9D9D9"/>
<path d="M5 12.859C6.86929 11.0267 9.38247 10.0004 12 10.0004C14.6175 10.0004 17.1307 11.0267 19 12.859" fill="#D9D9D9"/>
<path d="M8.5 16.429C9.43464 15.5129 10.6912 14.9997 12 14.9997C13.3088 14.9997 14.5654 15.5129 15.5 16.429" fill="#D9D9D9"/>
<path d="M12 20H12.01M2 8.82C4.75011 6.36023 8.31034 5.00034 12 5.00034C15.6897 5.00034 19.2499 6.36023 22 8.82M5 12.859C6.86929 11.0267 9.38247 10.0004 12 10.0004C14.6175 10.0004 17.1307 11.0267 19 12.859M8.5 16.429C9.43464 15.5129 10.6912 14.9997 12 14.9997C13.3088 14.9997 14.5654 15.5129 15.5 16.429" stroke="#150457" stroke-width="2" stroke-linecap="round" stroke-linejoin="round"/>
</g>
<defs>
<clipPath id="clip0_0_1">
<rect width="24" height="24" fill="white"/>
</clipPath>
</defs>
</svg>
